solid cube
 facet normal 0 0 0
  outer loop
   vertex 1 1 1
   vertex 1 2.5 1
   vertex 2.5 2.5 1
  endloop
 endfacet
 facet normal 0 0 0
  outer loop
   vertex 1 1 1
   vertex 2.5 2.5 1
   vertex 2.5 1 1
  endloop
 endfacet
 facet normal 0 0 0
  outer loop
   vertex 1 1 2.5
   vertex 2.5 1 2.5
   vertex 2.5 2.5 2.5
  endloop
 endfacet
 facet normal 0 0 0
  outer loop
   vertex 1 1 2.5
   vertex 2.5 2.5 2.5
   vertex 1 2.5 2.5
  endloop
 endfacet
 facet normal 0 0 0
  outer loop
   vertex 1 1 1
   vertex 2.5 1 1
   vertex 2.5 1 2.5
  endloop
 endfacet
 facet normal 0 0 0
  outer loop
   vertex 1 1 1
   vertex 2.5 1 2.5
   vertex 1 1 2.5
  endloop
 endfacet
 facet normal 0 0 0
  outer loop
   vertex 1 2.5 1
   vertex 1 2.5 2.5
   vertex 2.5 2.5 2.5
  endloop
 endfacet
 facet normal 0 0 0
  outer loop
   vertex 1 2.5 1
   vertex 2.5 2.5 2.5
   vertex 2.5 2.5 1
  endloop
 endfacet
 facet normal 0 0 0
  outer loop
   vertex 1 1 1
   vertex 1 1 2.5
   vertex 1 2.5 2.5
  endloop
 endfacet
 facet normal 0 0 0
  outer loop
   vertex 1 1 1
   vertex 1 2.5 2.5
   vertex 1 2.5 1
  endloop
 endfacet
 facet normal 0 0 0
  outer loop
   vertex 2.5 1 1
   vertex 2.5 2.5 1
   vertex 2.5 2.5 2.5
  endloop
 endfacet
 facet normal 0 0 0
  outer loop
   vertex 2.5 1 1
   vertex 2.5 2.5 2.5
   vertex 2.5 1 2.5
  endloop
 endfacet
endsolid cube
