solid cube
 facet normal 0 0 0
  outer loop
   vertex 1.3 1.3 1.3
   vertex 1.3 2.3 1.3
   vertex 2.3 2.3 1.3
  endloop
 endfacet
 facet normal 0 0 0
  outer loop
   vertex 1.3 1.3 1.3
   vertex 2.3 2.3 1.3
   vertex 2.3 1.3 1.3
  endloop
 endfacet
 facet normal 0 0 0
  outer loop
   vertex 1.3 1.3 2.3
   vertex 2.3 1.3 2.3
   vertex 2.3 2.3 2.3
  endloop
 endfacet
 facet normal 0 0 0
  outer loop
   vertex 1.3 1.3 2.3
   vertex 2.3 2.3 2.3
   vertex 1.3 2.3 2.3
  endloop
 endfacet
 facet normal 0 0 0
  outer loop
   vertex 1.3 1.3 1.3
   vertex 2.3 1.3 1.3
   vertex 2.3 1.3 2.3
  endloop
 endfacet
 facet normal 0 0 0
  outer loop
   vertex 1.3 1.3 1.3
   vertex 2.3 1.3 2.3
   vertex 1.3 1.3 2.3
  endloop
 endfacet
 facet normal 0 0 0
  outer loop
   vertex 1.3 2.3 1.3
   vertex 1.3 2.3 2.3
   vertex 2.3 2.3 2.3
  endloop
 endfacet
 facet normal 0 0 0
  outer loop
   vertex 1.3 2.3 1.3
   vertex 2.3 2.3 2.3
   vertex 2.3 2.3 1.3
  endloop
 endfacet
 facet normal 0 0 0
  outer loop
   vertex 1.3 1.3 1.3
   vertex 1.3 1.3 2.3
   vertex 1.3 2.3 2.3
  endloop
 endfacet
 facet normal 0 0 0
  outer loop
   vertex 1.3 1.3 1.3
   vertex 1.3 2.3 2.3
   vertex 1.3 2.3 1.3
  endloop
 endfacet
 facet normal 0 0 0
  outer loop
   vertex 2.3 1.3 1.3
   vertex 2.3 2.3 1.3
   vertex 2.3 2.3 2.3
  endloop
 endfacet
 facet normal 0 0 0
  outer loop
   vertex 2.3 1.3 1.3
   vertex 2.3 2.3 2.3
   vertex 2.3 1.3 2.3
  endloop
 endfacet
endsolid cube
